<svg width="74" height="41" viewBox="0 0 74 41" fill="none" xmlns="http://www.w3.org/2000/svg">
<path d="M0.0497847 16.6345C-0.0622309 18.4745 0.0497847 20.3148 0.0497847 22.0988V39.4967H9.8248V23.549C9.8248 18.5861 9.76899 14.1812 9.8248 13.233C9.99139 8.99553 11.1654 6.15316 13.3438 3.86523H12.8412C8.09361 3.86523 3.62463 6.59766 1.44616 10.8355C0.496648 12.6758 0.161401 14.6272 0.0497847 16.6345Z" fill="#820AD1"/>
<path d="M22.4491 0C18.8186 0 15.6902 1.44981 13.3442 3.84767C20.6059 3.84767 25.354 8.81024 25.5772 16.6746C25.633 18.459 25.6891 28.1611 25.6891 28.1611V39.4808H35.4641V24.2002C35.4641 19.5722 35.5201 15.5572 35.1848 12.8253C34.2353 5.12993 29.5435 0 22.4491 0Z" fill="#820AD1"/>
<path d="M73.9504 23.7665C74.062 21.9261 73.9504 20.0862 73.9504 18.3018V0.904297H64.1754V16.852C64.1754 21.8145 64.2312 26.2198 64.1754 27.1676C64.0087 31.4613 62.8348 34.2473 60.6001 36.5912H61.1028C65.8503 36.5912 70.3197 33.8588 72.4982 29.6209C73.5039 27.7252 73.837 25.7725 73.9504 23.7665Z" fill="#820AD1"/>
<path d="M51.5497 40.3829C55.181 40.3829 58.3088 38.9333 60.6547 36.5354C53.3935 36.5354 48.6454 31.5725 48.4219 23.7085C48.3661 21.9239 48.3103 17.4075 48.3103 12.222V0.904297H38.5347V16.1829C38.5347 20.8109 38.4789 24.8259 38.8142 27.5578C39.7637 35.2532 44.4559 40.3829 51.5497 40.3829Z" fill="#820AD1"/>
</svg>
