<svg width="140" height="22" viewBox="0 0 140 22" fill="none" xmlns="http://www.w3.org/2000/svg">
<g clip-path="url(#clip0_20241_1028)">
<path fill-rule="evenodd" clip-rule="evenodd" d="M35.608 2.09171C36.8727 4.18344 36.289 6.95619 34.1973 8.22096C32.8352 9.09657 31.1326 9.09657 29.8192 8.3669C29.6733 8.31825 29.576 8.26961 29.3328 8.22096C29.0896 8.17232 28.7977 8.22096 28.5058 8.31825C28.3599 8.3669 28.214 8.46419 28.068 8.51283C27.1924 9.09657 26.9005 10.264 27.4356 11.1397L29.4787 14.4475C30.7435 16.5392 30.1597 19.312 28.068 20.5768C26.0249 21.8902 23.2522 21.2578 21.9874 19.1661L19.9443 15.9555C19.3606 15.0312 18.1931 14.788 17.3175 15.3231C16.7824 15.6636 16.4419 16.296 16.4419 16.9284C16.4419 18.4364 15.7122 19.8957 14.3502 20.7227C12.3071 22.0361 9.53431 21.4037 8.26955 19.312L0.680943 7.10213C-0.63247 5.0104 -8.59498e-05 2.23764 2.09164 0.972873C4.13473 -0.340539 6.90749 0.291844 8.17226 2.38357L10.2153 5.64278C10.7504 6.51839 11.9179 6.81026 12.7935 6.27517H12.8422C13.4259 5.93465 13.7178 5.30227 13.7178 4.71853C13.7178 3.21054 14.4474 1.70255 15.8095 0.875583C17.8526 -0.437829 20.6254 0.194554 21.8901 2.28629L23.9332 5.59414C24.5169 6.51839 25.6844 6.76162 26.56 6.22652C26.7546 6.08059 26.9492 5.88601 27.1438 5.54549C27.0951 5.69143 27.0951 5.64278 27.1438 5.49685C27.2897 5.25362 27.3383 5.05904 27.387 4.91311C27.4356 4.76718 27.4356 4.66989 27.4843 4.52395C27.6302 2.82138 28.214 1.55661 29.576 0.681004C31.5705 -0.632409 34.2946 -2.49147e-05 35.608 2.09171Z" fill="#67EADD"/>
<path d="M50.8825 20.1397L54.0445 10.9945L57.3523 20.1397H59.6873L64.4058 7.20018H61.3412L58.3739 15.9563L55.4065 7.24882H52.7311L49.7637 15.9563L46.7964 7.24882H43.7318L48.5962 20.1884L50.8825 20.1397ZM71.6539 20.4316C75.3509 20.4316 78.4156 17.7561 78.4156 13.6699C78.4156 9.58378 75.3023 6.95695 71.6539 6.95695C68.0056 6.95695 64.9409 9.53513 64.9409 13.6699C64.9409 17.7561 68.0056 20.4316 71.6539 20.4316ZM71.6539 17.6588C69.5135 17.6588 67.7623 16.1022 67.7623 13.6699C67.7623 11.2863 69.5135 9.77836 71.6539 9.77836C73.7943 9.77836 75.5942 11.2863 75.5942 13.6699C75.5942 16.1022 73.8429 17.6588 71.6539 17.6588ZM83.5233 20.1397V15.4698C83.5233 12.016 84.5448 9.58378 86.9771 9.58378C87.5122 9.58378 88.1445 9.68107 88.8742 10.0216L89.3607 7.39476C88.9229 7.10289 87.9986 6.90831 87.0743 6.90831C85.4691 6.90831 84.2043 7.83256 83.5233 10.1675V7.20018H80.6532V20.1397H83.5233ZM93.6414 20.1397V15.032L98.4572 20.1397H102.203L96.0737 13.7186L102.203 7.20018H98.4572L93.6414 12.3565V0.195312H90.82V20.1397H93.6414ZM108.867 20.4316C110.473 20.4316 112.37 19.7019 113.197 18.2912V20.1397H116.018V7.24882H113.197V9.09733C112.321 7.63798 110.375 7.0056 108.867 7.0056C105.365 7.0056 102.3 9.58378 102.3 13.7186C102.3 17.8534 105.365 20.4316 108.867 20.4316ZM109.208 17.6588C107.067 17.6588 105.268 16.0049 105.268 13.6699C105.268 11.2863 107.067 9.72971 109.208 9.72971C111.154 9.72971 113.197 11.0918 113.197 13.6699C113.197 16.2481 111.3 17.6588 109.208 17.6588ZM122.974 20.1397V9.58378H125.698V7.24882H122.974V2.33569H120.153V7.24882H117.818V9.58378H120.153V20.1397H122.974ZM133.19 20.4316C136.887 20.4316 139.951 17.7561 139.951 13.6699C139.951 9.58378 136.838 6.95695 133.19 6.95695C129.541 6.95695 126.477 9.53513 126.477 13.6699C126.477 17.7561 129.541 20.4316 133.19 20.4316ZM133.19 17.6588C131.049 17.6588 129.298 16.1022 129.298 13.6699C129.298 11.2863 131.049 9.77836 133.19 9.77836C135.33 9.77836 137.13 11.2863 137.13 13.6699C137.13 16.1022 135.379 17.6588 133.19 17.6588Z" fill="white"/>
</g>
<defs>
<clipPath id="clip0_20241_1028">
<rect width="140" height="21.4524" fill="white"/>
</clipPath>
</defs>
</svg>
