<svg xmlns="http://www.w3.org/2000/svg" width="137" height="40" viewBox="-5.094710083007812 -5.094710083007812 519.6604284667969 152.18942016601562" fill="none">
<path d="M155.506 125.255C125.408 125.255 110.095 107.619 110.095 85.576C110.095 59.4754 130.864 35.8438 160.963 35.8438C191.06 35.8438 206.373 53.4795 206.373 75.5222C206.373 101.623 185.603 125.255 155.506 125.255ZM156.737 97.2137C167.299 97.2137 173.987 87.6911 173.987 77.1107C173.987 68.6461 168.53 63.8845 159.729 63.8845C149.17 63.8845 142.481 73.4071 142.481 83.9875C142.481 92.4521 147.937 97.2137 156.737 97.2137Z" fill="black"/>
<path d="M238.437 123.137H206.754L232.628 5.51172H264.311L238.437 123.137Z" fill="black"/>
<path fill-rule="evenodd" clip-rule="evenodd" d="M62.0979 125.253C52.4172 125.253 42.913 121.727 37.4576 114.143L35.5326 123.087L0 142L3.8363 123.087L29.7119 5.51172H61.3948L52.2422 46.9539C59.6347 38.8426 66.4982 35.8447 75.2991 35.8447C94.3091 35.8447 106.982 48.3653 106.982 71.2907C106.982 94.9208 92.3721 125.253 62.0979 125.253ZM74.2439 77.9927C74.2439 88.9249 66.4982 97.2131 56.4661 97.2131C50.8337 97.2131 45.73 95.0973 42.3846 91.3937L47.3134 69.7028C51.0087 65.9991 55.2339 63.884 60.1626 63.884C67.7303 63.884 74.2439 69.5274 74.2439 77.9927Z" fill="black"/>
<path d="M297.27 125.252C278.965 125.252 265.939 118.55 265.939 103.737C265.939 102.503 266.116 99.5045 266.644 97.0358L273.508 65.4683H259.427L265.587 37.9579H279.668L284.772 14.6801L320.24 0L316.455 14.7159L311.352 37.9579H328.6L322.439 65.4683H305.191L300.614 86.2783C300.262 87.8652 300.085 89.6285 300.085 90.3339C300.085 94.3894 302.551 97.2106 308.006 97.2106C309.591 97.2106 311.879 96.6817 312.406 96.3298V121.725C309.063 124.017 303.079 125.252 297.27 125.252Z" fill="black"/>
<path d="M336.339 127.163C332.042 127.163 328.62 123.575 328.62 119.269C328.62 114.246 332.917 110.019 337.931 110.019C342.227 110.019 345.649 113.608 345.649 117.912C345.649 122.937 341.354 127.163 336.339 127.163Z" fill="black"/>
<path d="M390.311 126.123H375.987L380.446 105.871C380.602 105.153 380.923 103.877 380.923 102.92C380.923 100.29 378.614 99.3323 376.307 99.3323C373.203 99.3323 371.053 100.928 369.541 102.283L364.288 126.123H349.965L358.477 87.6125H372.803L371.77 91.9963C374.553 89.4455 378.058 86.6553 383.867 86.6553C391.905 86.6553 396.518 91.0408 396.518 96.7815C396.518 97.4195 396.278 99.1727 396.122 99.8899L390.311 126.123Z" fill="black"/>
<path d="M420.032 127.08C407.618 127.08 399.019 120.86 399.019 109.538C399.019 97.2593 408.413 86.6553 421.86 86.6553C431.41 86.6553 439.848 92.4758 439.848 104.197C439.848 106.828 439.368 109.858 438.971 111.293H413.188V111.371C413.188 111.931 415.494 116.157 421.065 116.157C424.088 116.157 427.671 115.439 429.421 114.244L433.797 123.572C429.898 126.043 424.648 127.08 420.032 127.08ZM414.539 102.203H427.193V101.965C427.193 100.847 425.839 97.5791 421.305 97.5791C417.484 97.5791 415.017 100.53 414.539 102.203Z" fill="black"/>
<path d="M489.813 126.121H474.215L472.626 104.593L461.722 126.121H446.124L443.497 87.6084H457.823L458.222 108.819L469.682 87.6084H482.492L484.482 108.819L494.269 87.6084H509.471L489.813 126.121Z" fill="black"/>
</svg>