<svg width="1405" height="196" viewBox="0 0 1405 196" fill="none" xmlns="http://www.w3.org/2000/svg">
<g clip-path="url(#clip0_15_38)">
<path d="M84.18 0C63.05 0 45.86 17.19 45.86 38.32V45.86H38.32C17.19 45.86 0 63.05 0 84.18V135C0 143.28 4.94 150.68 12.6 153.85C20.25 157.02 28.98 155.28 34.84 149.43L54.14 130.13C62.3 121.97 66.79 111.13 66.78 99.6V66.76H110.99C120.59 66.76 128.41 74.57 128.41 84.18V129.15H95.54C84.01 129.15 73.17 133.64 65.02 141.79L45.74 161.07C39.88 166.93 38.15 175.65 41.32 183.31C44.49 190.97 51.89 195.91 60.17 195.91H110.99C132.12 195.91 149.31 178.72 149.31 157.59V150.05H156.85C177.98 150.05 195.17 132.86 195.17 111.73V38.32C195.17 17.19 177.98 0 156.85 0H84.18ZM39.35 115.35L20.9 133.8V84.17C20.9 74.57 28.71 66.75 38.32 66.75H45.87V99.6C45.87 105.55 43.56 111.14 39.36 115.35H39.35ZM128.4 157.59C128.4 167.19 120.59 175.01 110.98 175.01H61.35L79.79 156.57C83.99 152.37 89.58 150.05 95.53 150.05H128.4V157.59ZM174.26 111.73C174.26 121.33 166.45 129.15 156.84 129.15H149.3V84.18C149.3 63.05 132.11 45.86 110.98 45.86H66.76V38.32C66.76 28.72 74.57 20.9 84.18 20.9H156.84C166.44 20.9 174.26 28.71 174.26 38.32V111.73Z" fill="#1C1C1C"/>
<path d="M570.25 45.26C531.18 45.26 505.81 72.78 505.81 114.65C505.81 156.52 530.98 183.57 570.25 183.57C609.52 183.57 634.2 156.28 634.2 114.65C634.2 73.02 609.05 45.26 570.25 45.26ZM570.04 160.74L570.02 160.76C546.75 160.76 533.1 143.83 533.1 114.66C533.1 85.49 546.75 68.09 570.27 68.09C593.79 68.09 606.97 85.02 606.97 114.42C606.97 143.82 593.33 160.75 570.05 160.75L570.04 160.74Z" fill="#1C1C1C"/>
<path d="M802.84 45.26C784.27 45.26 768.02 54.91 760.04 71.84C753.23 54.2 738.16 45.26 720.06 45.26C704.3 45.26 689.48 52.56 680.54 68.31L678.65 47.61H653.95V181.21H681.46V103.13C681.71 83.85 693.93 69.49 712.75 69.49C729.46 69.49 736.74 80.78 736.74 97.71V181.21H764.25V104.3C764.25 82.42 777.19 69.49 796 69.49C811.53 69.49 819.77 79.36 819.77 96.07V181.21H847.28V90.66C847.28 63.37 831.53 45.26 802.84 45.26Z" fill="#1C1C1C"/>
<path d="M929.59 45.26C891.03 45.26 867.03 72.78 867.03 114.65C867.03 156.52 893.36 183.57 931.25 183.57C961.82 183.57 983.24 168.52 989.81 145.22L965.83 139.35C961.13 152.99 949.6 161.7 931.73 161.7C910.08 161.7 895.26 148.29 895.02 121.47H990.74C993.81 76.31 970.75 45.29 929.61 45.27L929.59 45.26ZM895.04 102.67C895.96 79.38 909.86 66.46 929.14 66.46C948.42 66.46 962.53 80.81 962.77 102.67H895.04Z" fill="#1C1C1C"/>
<path d="M1080.13 45.26C1062.02 45.26 1048.38 52.07 1037.33 67.36L1035.91 47.61H1010.75V181.21H1038.26V101.95C1038.5 81.71 1053.55 69.49 1071.65 69.49C1089.75 69.49 1098.45 79.14 1098.45 94.9V181.21H1125.74V91.59C1125.74 60.55 1106.92 45.26 1080.12 45.26H1080.13Z" fill="#1C1C1C"/>
<path d="M1187.95 12.33H1161.12V47.86L1143.48 47.61V68.31L1161.12 68.06V158.37C1161.12 174.59 1171.24 182.82 1190.77 182.82C1196.18 182.82 1202.77 182.35 1209.59 180.71V159.08C1206.99 160.01 1203.71 160.26 1199.25 160.26C1190.31 160.26 1187.95 157.91 1187.95 148.25V68.09L1209.83 68.33V47.63L1187.95 47.87V12.33Z" fill="#1C1C1C"/>
<path d="M1261.87 12.33H1234.58V35.34H1261.87V12.33Z" fill="#1C1C1C"/>
<path d="M1261.87 47.62H1234.58V181.22H1261.87V47.62Z" fill="#1C1C1C"/>
<path d="M1378.1 133.46C1375.99 150.63 1363.99 160.26 1346.34 160.26C1324 160.26 1310.6 142.62 1310.6 114.4C1310.6 86.18 1324.47 68.54 1346.34 68.54C1363.74 68.54 1375.74 77.95 1377.85 94.88L1404.43 91.6C1400.9 63.38 1378.56 45.27 1347.05 45.27C1308.24 45.27 1282.62 72.56 1282.62 114.41C1282.62 156.26 1307.78 183.33 1346.59 183.33C1378.81 183.33 1401.15 164.98 1404.68 137L1378.1 133.47V133.46Z" fill="#1C1C1C"/>
<path d="M441.62 45.26C423.05 45.26 406.8 54.91 398.82 71.84C392.01 54.2 376.94 45.26 358.84 45.26C343.08 45.26 328.26 52.56 319.32 68.31L317.43 47.61H292.73V181.21H320.24V103.13C320.49 83.85 332.71 69.49 351.53 69.49C368.24 69.49 375.52 80.78 375.52 97.71V181.21H403.03V104.3C403.03 82.42 415.97 69.49 434.78 69.49C450.31 69.49 458.55 79.36 458.55 96.07V181.21H486.06V90.66C486.06 63.37 470.31 45.26 441.62 45.26Z" fill="#1C1C1C"/>
</g>
<defs>
<clipPath id="clip0_15_38">
<rect width="1405" height="196" fill="white"/>
</clipPath>
</defs>
</svg>
