<svg width="500" height="500" viewBox="0 0 500 500" fill="none" xmlns="http://www.w3.org/2000/svg">
<path d="M241.695 97.875C247.37 100.06 253.005 102.33 258.695 104.405C264.385 106.48 270.08 108.375 275.805 110.26C281.53 112.145 286.97 114.49 292.43 116.915C297.36 119.105 302.345 121.16 307.29 123.315C310.47 124.705 313.53 126.4 316.79 127.55C324.096 130.103 331.251 133.069 338.22 136.435C342.55 138.545 346.9 140.615 351.315 142.535C355.555 144.385 359.875 146.035 364.175 147.75C369.135 149.71 374.175 151.485 379.055 153.61C382.95 155.305 386.675 157.405 390.475 159.325C391.06 159.62 392.025 159.855 392.115 160.27C392.235 160.8 391.675 161.505 391.345 162.1C390.345 163.96 389.235 165.785 388.23 167.655C387.15 169.655 386.13 171.72 385.09 173.755C383.92 176.05 382.885 178.43 381.555 180.625C380 183.185 379.175 186.015 378.09 188.75C375.96 194.13 373.235 199.205 370.485 204.275C368.93 207.14 367.695 210.185 366.35 213.16C363.725 218.955 361.095 224.75 358.535 230.575C357.775 232.3 357.33 234.16 356.57 235.88C355.26 238.845 353.805 241.75 352.445 244.695C351.825 246.035 351.295 247.41 350.695 248.85C346.58 248.275 342.84 246.465 339.015 244.995C333.085 242.705 327.275 240.105 321.38 237.725C317.025 235.97 312.57 234.46 308.235 232.665C299.64 229.115 291.1 225.445 282.535 221.82C278.205 219.99 273.905 218.09 269.535 216.345C265.73 214.845 261.785 213.65 258.035 212.025C252.245 209.525 245.945 208.325 240.425 205.145C236.81 204.645 233.925 202.32 230.47 201.37C230.315 201.325 230.17 201.23 230.02 201.17C227.595 200.17 225.155 199.205 222.755 198.17C221.19 197.485 219.69 196.67 218.15 195.9C215.033 194.387 211.911 192.887 208.785 191.4C208.585 191.305 202.42 188.85 202.81 187.69C203.615 185.29 204.4 182.865 205.41 180.55C206.71 177.55 208.37 174.71 209.61 171.69C210.755 168.9 211.515 165.955 212.505 163.095C213.185 161.155 213.97 159.25 214.715 157.33C215.715 154.72 216.715 152.1 217.78 149.505C219.67 144.845 221.46 140.135 223.56 135.565C225.6 131.13 227.99 126.855 230.205 122.505C231.47 120.005 232.675 117.505 233.95 115.04C234.385 114.2 235.065 113.475 235.45 112.615C236.7 109.705 237.845 106.75 239.07 103.83C239.905 101.84 240.79 99.9 241.695 97.875Z" fill="#FAF9F5"/>
<path fill-rule="evenodd" clip-rule="evenodd" d="M425.416 246.94C427.715 246.955 430.011 247.124 432.287 247.445C432.291 247.446 432.296 247.446 432.3 247.447C432.304 247.447 432.309 247.448 432.313 247.449C434.328 247.687 435.463 249.205 435.959 250.879L436.005 251.042L436.007 251.049C436.533 253.065 436.458 255.171 436.593 256.959L436.613 257.262C436.704 258.777 436.621 260.264 436.531 261.695C436.434 263.24 436.329 264.713 436.394 266.191L436.448 267.469C436.566 270.451 436.636 273.441 436.645 276.428V276.43C436.645 277.756 436.58 279.081 436.523 280.375C436.473 281.515 436.428 282.635 436.434 283.747L436.44 284.224V284.225C436.496 287.366 436.628 290.506 436.781 293.652L436.939 296.8V296.804C437.159 301.417 437.438 305.998 437.674 310.619L437.758 312.037C437.848 313.472 437.942 314.957 437.899 316.425V316.433C437.774 319.739 437.092 323 435.884 326.079L435.878 326.096L435.871 326.113C435.585 326.761 435.455 327.467 435.492 328.174C435.739 329.879 436.035 331.579 436.332 333.296C436.628 335.013 436.924 336.745 437.163 338.487L437.246 339C437.645 341.571 437.853 344.168 437.865 346.771V346.795C437.79 350.028 437.404 353.269 437.066 356.442L436.926 357.797C436.623 360.813 436.173 363.628 435.968 366.566C435.933 367.101 435.999 367.664 436.104 368.297C436.192 368.823 436.316 369.439 436.395 370.043L436.425 370.302V370.304C436.587 371.846 436.75 373.409 436.876 374.971L436.928 375.641L436.928 375.646C437.203 379.733 437.429 383.858 437.693 387.932L437.718 388.271C437.784 389.06 437.887 389.846 437.979 390.684C438.082 391.622 438.167 392.599 438.135 393.588C438.059 396.121 437.659 398.718 437.431 401.142C437.089 404.791 436.795 408.511 436.431 412.176L436.43 412.18C436.293 413.506 436.057 414.847 435.868 416.113C435.675 417.399 435.525 418.641 435.53 419.867V419.87C435.53 421.246 435.688 422.632 435.88 424.062C436.071 425.474 436.298 426.95 436.413 428.422L436.483 429.412C436.633 431.722 436.68 434.032 436.715 436.319L436.723 437.064C436.733 438.803 436.671 440.539 436.615 442.249C436.55 444.434 436.439 446.623 436.35 448.786L436.349 448.787C436.299 449.977 436.349 451.424 436.172 452.746L436.171 452.756L436.169 452.766C435.821 454.981 435.806 457.236 436.126 459.455C436.237 460.155 436.129 460.845 436.001 461.438C435.856 462.104 435.714 462.561 435.624 463.111L435.621 463.127L435.618 463.144C435.309 464.671 435.094 466.215 434.973 467.768C434.925 469.159 434.557 470.364 433.879 471.385C433.197 472.412 432.235 473.204 431.078 473.814L431.074 473.816C430.586 474.07 430.044 474.025 429.755 474C429.369 473.968 429.201 473.944 429.051 473.967C427.711 474.195 426.367 474.461 425.063 474.78L425.062 474.78C423.734 475.123 422.427 475.126 421.205 475.072C419.94 475.017 418.825 474.907 417.683 474.969L417.659 474.97H417.635C417.504 474.97 417.391 474.951 417.316 474.936C417.278 474.928 417.242 474.92 417.216 474.914C417.211 474.912 417.206 474.911 417.201 474.91C413.436 476.082 409.516 475.741 405.947 475.77C404.234 475.785 402.521 475.764 400.82 475.744C399.115 475.724 397.421 475.705 395.73 475.725C394.041 475.745 392.353 475.81 390.65 475.872C388.951 475.933 387.24 475.992 385.524 476H385.52C382.356 476 379.109 475.834 376.006 475.785H376.005C374.541 475.76 373.076 475.76 371.602 475.758C370.13 475.756 368.649 475.753 367.166 475.72C364.428 475.679 361.826 475.55 359.134 475.545C358.33 475.545 357.524 475.609 356.666 475.668C355.822 475.726 354.936 475.777 354.043 475.734C352.619 475.668 351.202 475.541 349.804 475.411C348.4 475.281 347.017 475.147 345.632 475.063L345.629 475.063C344.808 475.01 343.977 475.01 343.117 475.015C342.268 475.019 341.385 475.028 340.504 474.989C338.138 474.905 335.681 474.742 333.349 474.644H333.348C332.485 474.607 331.619 474.587 330.743 474.566C329.869 474.545 328.987 474.522 328.107 474.479C325.439 474.347 322.886 474.134 320.267 474.049C318.026 473.975 315.775 474 313.515 474.05H313.507C312.267 474.067 311.032 474.107 309.79 474.147C308.551 474.187 307.304 474.227 306.053 474.245C302.987 474.291 300.111 474.244 297.099 474.31L297.099 474.31C296.34 474.331 295.576 474.409 294.784 474.499C294 474.588 293.177 474.691 292.355 474.752L292.355 474.752C291.927 474.786 291.511 474.777 291.133 474.766C290.742 474.754 290.397 474.741 290.044 474.754L290.043 474.754C288.053 474.839 286.095 474.948 284.118 475.063C284.091 475.071 284.067 475.081 283.989 475.108C283.925 475.13 283.807 475.171 283.673 475.194C283.536 475.217 283.331 475.231 283.104 475.16C281.176 474.556 279.285 474.891 277.002 475.013L277.002 475.014C276.563 475.038 276.138 474.96 275.825 474.904C275.519 474.849 275.3 474.811 275.104 474.805H275C274.473 474.805 273.939 474.858 273.352 474.914C272.852 474.962 272.313 475.013 271.765 475.02H271.528C268.985 474.986 266.277 474.833 263.781 474.78C263.088 474.765 262.393 474.799 261.649 474.824C260.918 474.849 260.15 474.867 259.378 474.808C257.449 474.667 255.524 474.487 253.609 474.308C251.702 474.13 249.805 473.951 247.91 473.81C246.549 473.8 245.189 473.866 243.835 474.005L243.807 474.008L243.779 474.009C241.363 474.104 238.942 474.174 236.536 474.259L236.536 474.259C234.341 474.338 232.077 474.475 229.836 474.49H229.83C229.09 474.49 228.355 474.432 227.661 474.379C226.955 474.325 226.289 474.275 225.631 474.28H225.625C224.538 474.28 223.448 474.335 222.33 474.388C221.219 474.441 220.082 474.493 218.94 474.48C216.709 474.455 214.46 474.21 212.368 474.109H212.367C211.678 474.075 210.987 474.075 210.266 474.071C209.552 474.068 208.813 474.06 208.069 474.008C206.431 473.913 204.676 473.701 203.109 473.583H203.108C201.61 473.468 200.161 473.363 198.702 473.299C194.091 473.107 189.571 472.77 185.031 472.799L185.031 472.8C183.759 472.816 182.474 472.996 181.145 473.22C179.837 473.441 178.453 473.713 177.084 473.883L177.08 473.884C175.455 474.08 173.712 474.119 172.172 474.242L172.172 474.242C171.748 474.277 171.325 474.338 170.86 474.4C170.407 474.46 169.921 474.52 169.424 474.539L169.425 474.54C167.047 474.634 164.633 474.74 162.223 474.72C158.449 474.691 154.483 474.862 150.62 474.373C148.913 474.157 147.233 474.219 145.521 474.37C143.861 474.516 142.033 474.763 140.291 474.877L140.291 474.878C139.394 474.941 138.498 474.995 137.608 475.048C136.716 475.102 135.829 475.156 134.941 475.218L134.941 475.218C132.534 475.388 130.135 475.577 127.72 475.757H127.719C126.42 475.853 124.978 476.03 123.576 476.04H123.57C120.263 476.04 117.055 475.955 113.779 475.99H113.778C111.199 476.014 108.761 475.883 106.404 476.258L105.934 476.339C104.237 476.662 102.565 476.723 100.941 476.714C99.2786 476.705 97.7578 476.627 96.1626 476.66L96.1631 476.66C94.4232 476.696 92.6882 476.6 90.9849 476.495C89.2711 476.389 87.5947 476.275 85.92 476.265H85.919C81.5556 476.235 77.2478 476.429 72.8301 476.48H72.8199C72.1625 476.48 71.5142 476.431 70.8965 476.379C70.2685 476.326 69.6794 476.271 69.0884 476.25C68.7932 476.239 68.4859 476.257 68.1402 476.283C67.8081 476.308 67.4239 476.342 67.0435 476.35H67.0249C66.9637 476.35 66.8932 476.354 66.7862 476.359C66.6902 476.364 66.5638 476.37 66.437 476.369C66.2511 476.366 65.7625 476.355 65.3921 476.013C64.2962 475.003 63.2499 473.988 62.2261 472.893L62.2173 472.883L62.209 472.874C61.8237 472.437 61.6123 471.873 61.6153 471.291V471.261L61.6177 471.231C61.78 469.004 62.034 466.651 62.208 464.432V464.429C62.3008 463.291 62.3146 462.16 62.3555 460.97C62.4503 458.042 62.5306 455.094 62.6407 452.157V452.156C62.6662 451.497 62.7099 450.84 62.753 450.196C62.7963 449.548 62.8393 448.913 62.8662 448.278V448.276C62.9613 446.125 63.0551 443.981 63.0899 441.846L63.1104 440.143C63.1241 438.441 63.1172 436.738 63.0899 435.036C63.036 432.063 62.8503 428.951 62.8653 425.92C62.8653 421.037 62.9454 416.159 63.1158 411.279L63.1856 409.525C63.3641 405.432 63.6486 401.33 63.8662 397.264C63.9992 394.724 64.0721 392.081 64.2368 389.504V389.503C64.372 387.446 64.6226 385.337 64.7935 383.336L64.7969 383.294L64.8042 383.253C64.8488 383.009 64.8371 382.757 64.7696 382.519C64.7021 382.28 64.5803 382.06 64.4141 381.875L64.3819 381.839L64.354 381.8C63.7844 381.005 63.5077 380.038 63.5703 379.063C63.6507 376.833 63.9215 374.532 64.0718 372.379L64.0733 372.361L64.0752 372.344C64.219 371.041 64.2958 369.733 64.3052 368.423V367.861C64.2001 365.107 65.0611 362.573 65.8125 360.255L65.814 360.251C66.9527 356.795 70.1023 354.944 73.6206 354.846C74.9683 354.809 76.3192 354.701 77.7027 354.601C79.0754 354.501 80.4748 354.41 81.875 354.415C84.5055 354.415 87.2352 354.767 89.7466 354.917L89.7515 354.917H89.7559C91.9756 355.072 94.1832 355.222 96.3936 355.331H96.3965C96.8741 355.356 97.3594 355.342 97.8887 355.327C98.3404 355.314 98.825 355.3 99.315 355.321L99.5254 355.332L99.5415 355.333L99.5572 355.334C102.579 355.636 105.63 355.447 108.591 354.773L108.968 354.691C110.86 354.307 112.868 354.309 114.642 354.202H114.643C116.827 354.073 119.082 353.914 121.329 353.976H121.33C122.926 354.021 124.988 353.823 126.915 354.685C127.086 354.76 127.344 354.792 127.757 354.774C127.958 354.765 128.164 354.747 128.398 354.728C128.622 354.709 128.871 354.689 129.118 354.685L130.204 354.66C135.463 354.523 140.85 354.173 146.219 354.638L146.775 354.689L146.778 354.689C146.879 354.7 146.974 354.7 147.108 354.699C147.125 351.619 147.216 348.669 147.066 345.705L147.035 345.183C146.95 343.964 146.79 342.742 146.625 341.489C146.437 340.069 146.243 338.608 146.166 337.136C146.03 334.55 146.266 331.818 146.28 329.355C146.28 328.701 146.231 328.045 146.185 327.339C146.139 326.647 146.099 325.914 146.131 325.172C146.212 323.252 146.457 321.315 146.634 319.467L146.635 319.459C146.907 316.857 147.298 314.418 147.441 311.9C147.605 309.016 147.565 306.127 147.585 303.18C147.585 299.931 147.61 296.683 147.585 293.467V293.46L147.577 292.899C147.562 292.337 147.528 291.77 147.489 291.188C147.439 290.422 147.381 289.625 147.36 288.828L147.292 286.115C147.226 283.401 147.171 280.685 147.145 277.968V277.96C147.145 277.26 147.194 276.565 147.239 275.906C147.285 275.236 147.328 274.599 147.325 273.963C147.323 273.322 147.285 272.709 147.239 272.085C147.193 271.468 147.139 270.825 147.111 270.167L147.11 270.165C147.014 267.757 147.001 265.448 146.842 263.1C146.625 259.925 147.374 256.971 148.392 254.148C148.915 252.692 150.187 251.311 151.605 250.325C153.02 249.341 154.76 248.627 156.328 248.711H156.334C157.139 248.761 157.918 248.701 158.826 248.672C159.703 248.644 160.657 248.649 161.643 248.872C161.922 248.934 162.273 248.884 162.833 248.752C163.32 248.637 164.017 248.443 164.699 248.465C166.211 248.503 167.718 248.657 169.207 248.925L169.844 249.047L169.85 249.048C171.431 249.38 172.484 249.654 173.693 249.087C174.247 248.828 174.85 248.855 175.279 248.894C175.801 248.942 176.093 249.005 176.445 249.005C178.264 249.005 180.196 248.94 182.082 248.951L182.887 248.96L182.907 248.96L182.927 248.962C183.934 249.027 184.936 249.152 185.929 249.334L185.928 249.335C186.027 249.351 186.115 249.372 186.177 249.389C186.214 249.399 186.251 249.409 186.279 249.417C186.297 249.422 186.312 249.426 186.326 249.43C188.207 248.884 190.061 249.207 191.674 249.439C193.764 249.726 195.824 249.929 197.953 250.19C198.033 250.191 198.149 250.192 198.263 250.204C198.336 250.211 198.435 250.225 198.539 250.254C198.618 250.276 198.765 250.324 198.911 250.433L198.974 250.484L199.058 250.559L199.121 250.652C199.325 250.955 199.534 251.108 199.737 251.196C199.954 251.29 200.218 251.334 200.562 251.341C200.931 251.348 201.268 251.316 201.731 251.297C202.151 251.281 202.642 251.279 203.132 251.389C205.689 251.935 208.279 252.312 210.885 252.519L211.407 252.557L211.412 252.558L211.418 252.558C212.043 252.61 212.699 252.555 213.418 252.464C214.106 252.376 214.901 252.247 215.662 252.192C216.484 252.134 217.308 252.104 218.106 252.071C218.911 252.038 219.696 252.001 220.474 251.929L221.385 251.838C222.297 251.743 223.21 251.636 224.13 251.527C225.352 251.383 226.586 251.235 227.823 251.114L228.317 251.073C228.808 251.038 229.294 251.023 229.762 251.01C230.395 250.991 230.998 250.976 231.602 250.923C233.08 250.79 234.588 250.584 236.108 250.387L236.733 250.304C238.202 250.103 239.737 249.862 241.236 249.7H241.24L241.244 249.699C243.369 249.489 245.521 249.287 247.678 249.196L247.682 249.195H247.685C250.182 249.11 252.774 249.194 255.234 249.165L257.821 249.125C260.409 249.078 262.997 249.016 265.591 248.96H265.592C269.897 248.871 274.283 248.655 278.62 248.705C282.575 248.75 286.551 249.078 290.448 249.292C292.448 249.399 294.324 249.564 296.276 249.64C296.561 249.638 296.862 249.593 297.247 249.536C297.608 249.482 298.053 249.417 298.501 249.436C302.122 249.568 305.583 249.78 309.173 249.896H309.174C309.804 249.916 310.443 249.878 311.129 249.836C311.796 249.796 312.51 249.752 313.229 249.775C314.876 249.786 316.521 249.902 318.153 250.12L318.852 250.22L318.864 250.222L318.875 250.224C321.165 250.636 323.285 250.107 325.694 249.552L325.7 249.551C330.952 248.379 336.361 248.068 341.713 248.628C343.728 248.774 345.751 248.774 347.767 248.627L347.776 248.626L347.785 248.626C351.082 248.455 354.241 248.131 357.585 247.922L359.814 247.78C362.047 247.642 364.291 247.517 366.533 247.46C367.497 247.437 368.455 247.484 369.383 247.536C370.204 247.583 370.996 247.633 371.785 247.65L372.123 247.655C376.183 247.69 380.235 247.655 384.31 247.655C387.555 247.655 390.815 247.615 394.096 247.655C398.054 247.7 401.866 247.869 405.78 247.875C408.974 247.875 412.174 247.785 415.365 247.621C417.02 247.537 418.671 247.389 420.345 247.25C422.013 247.111 423.699 246.981 425.389 246.94L425.402 246.94H425.416ZM231.638 365.845C231.161 365.846 230.676 365.885 230.151 365.931C229.636 365.976 229.078 366.027 228.518 366.035H228.516C225.32 366.076 222.293 365.929 219.205 366.123L219.204 366.124C214.704 366.404 210.34 366.942 205.807 367.317C204.393 367.433 202.978 367.51 201.577 367.585C200.173 367.661 198.782 367.736 197.396 367.847C196.272 367.937 195.198 368.139 193.928 368.343C193.938 370.407 193.978 372.47 193.924 374.503V374.508C193.749 380.012 193.519 385.517 193.299 391.015C193.244 392.523 193.164 394.029 193.079 395.505C192.873 399.186 192.624 402.83 192.449 406.497V406.498C192.243 410.728 191.985 414.916 191.95 419.107C191.951 423 192.213 426.881 192.384 430.827C192.451 432.357 192.585 433.779 192.669 435.379C192.697 435.92 192.704 436.465 192.713 436.982C192.722 437.506 192.735 438.008 192.772 438.503C192.809 438.98 192.89 439.445 192.974 439.968C193.054 440.474 193.136 441.028 193.145 441.603L193.161 442.678C193.187 445.18 193.145 447.691 193.145 450.16C193.185 450.745 193.192 451.331 193.164 451.916L193.163 451.952L193.158 451.987C192.782 454.885 192.389 457.779 191.992 460.702C192.054 460.707 192.116 460.712 192.179 460.717L192.563 460.755L192.569 460.756C196.425 461.218 200.251 461.711 204.092 462.14C206.041 462.354 207.981 462.526 209.914 462.59H209.915C211.213 462.635 212.513 462.635 213.831 462.636C215.143 462.636 216.474 462.637 217.807 462.686C218.495 462.71 219.164 462.805 219.798 462.907C220.445 463.01 221.037 463.117 221.651 463.189C224.573 463.474 227.308 463.682 230.253 463.964C231.449 464.068 232.529 464.202 233.672 464.277H233.673C237.982 464.564 242.295 464.838 246.61 465.099L246.648 465.071L246.702 465.042C248.92 463.833 251.155 462.584 253.412 461.396L253.425 461.389L253.438 461.383C253.993 461.114 254.599 460.969 255.215 460.96C255.95 460.937 256.684 460.949 257.388 460.956C258.101 460.962 258.788 460.964 259.468 460.926L259.678 460.91C260.171 460.865 260.67 460.767 261.244 460.667C261.869 460.559 262.57 460.451 263.29 460.485C265.827 460.587 268.341 460.892 270.803 461.155C271.404 461.218 272.008 461.356 272.521 461.46C273.055 461.569 273.519 461.648 273.961 461.649C274.859 461.632 275.762 461.548 276.699 461.455C277.627 461.363 278.593 461.262 279.565 461.226C281.731 461.14 283.944 461.225 286.045 461.225H292.96C294.213 461.225 295.586 461.17 296.907 461.226H296.914L296.92 461.227C297.906 461.283 298.888 461.375 299.849 461.465C300.574 461.532 301.288 461.599 302 461.648L302.71 461.691L302.712 461.691C305.761 461.857 309.022 461.899 312.128 462.107C316.831 462.412 321.336 462.935 325.974 463.141C329.715 463.286 333.43 463.183 337.1 463.164C336.836 461.677 336.512 460.023 336.412 458.394L336.411 458.367C336.355 456.582 336.446 454.795 336.683 453.024C336.74 452.53 336.956 452.079 337.086 451.793C337.246 451.441 337.316 451.26 337.328 451.109C337.487 448.938 337.619 446.783 337.58 444.652L337.568 444.193C337.534 443.122 337.456 442.045 337.373 440.946C337.29 439.854 337.201 438.737 337.15 437.61L337.13 437.126C336.992 433.169 336.968 429.007 336.846 425.067C336.716 420.889 336.531 416.715 336.346 412.529L336.345 412.514V412.499C336.335 411.347 336.241 410.198 336.067 409.06C335.259 404.72 334.998 400.296 335.292 395.892C335.68 389.873 335.715 383.834 335.835 377.753L335.855 376.398C335.888 373.239 335.835 370.088 335.835 366.895V366.316C335.81 366.317 335.784 366.317 335.757 366.318C333.242 366.471 330.632 366.674 328.089 366.818L328.086 366.819H328.082C322.658 367.08 317.273 367.263 311.875 367.568C310.437 367.65 309.001 367.796 307.54 367.942C306.085 368.088 304.608 368.233 303.122 368.304C300.747 368.418 298.369 368.432 296.007 368.432L293.65 368.43C293.046 368.43 292.451 368.38 291.889 368.328C291.316 368.275 290.786 368.221 290.255 368.2C288.07 368.122 285.736 368.118 283.517 368.009C282.573 367.965 281.634 367.873 280.728 367.789C279.926 367.714 279.146 367.646 278.371 367.615L278.039 367.604C277.283 367.586 276.517 367.64 275.702 367.697C274.901 367.754 274.051 367.813 273.196 367.79C270.367 367.709 267.538 367.503 264.741 367.329L264.74 367.328C261.025 367.093 257.29 366.873 253.566 366.577C252.373 366.483 251.181 366.32 250.031 366.177C248.869 366.033 247.737 365.906 246.607 365.87H246.606C245.358 365.828 244.101 365.873 242.816 365.93C241.7 365.979 240.557 366.038 239.411 366.052L238.92 366.055C237.688 366.055 236.46 366.011 235.248 365.962C234.032 365.914 232.835 365.863 231.638 365.845ZM99.687 366.031C96.3396 365.438 93.0404 365.87 89.5659 366.293H89.5645C88.8678 366.377 88.175 366.536 87.4253 366.705C86.6919 366.871 85.9042 367.047 85.0948 367.13L85.0943 367.13C83.3347 367.318 81.4595 367.277 79.8199 367.339L79.8203 367.339C78.9807 367.373 78.1406 367.415 77.2852 367.458V367.61L77.3047 368.566C77.356 370.805 77.4396 373.089 77.3999 375.355V375.357C77.35 377.852 77.1055 380.429 76.9991 382.833V382.835C76.8038 387.07 76.655 391.282 76.4693 395.528V395.529C76.3294 398.671 76.1838 401.829 75.9683 404.983C75.9279 405.648 75.8277 406.3 75.732 406.909C75.6342 407.53 75.5419 408.106 75.4976 408.682L75.4971 408.685C75.1368 413.188 74.7679 417.678 74.4986 422.133C74.3229 425.123 74.2119 428.112 74.106 431.11L73.9995 434.112C73.965 435.061 73.9548 436.013 73.9449 436.979C73.9349 437.941 73.9252 438.916 73.8897 439.892V439.893C73.7775 442.871 73.5502 445.711 73.5103 448.632V448.634C73.4961 449.516 73.5636 450.406 73.6382 451.341C73.7118 452.262 73.7925 453.23 73.7901 454.205C73.7901 456.31 73.6015 458.432 73.4785 460.468C73.3937 461.871 73.2886 463.295 73.1783 464.817C73.4981 464.77 73.8191 464.73 74.1411 464.699L74.1621 464.697L74.1831 464.696C77.9219 464.516 81.691 464.3 85.4668 464.225C90.1311 464.13 94.8075 464.155 99.4512 464.135H99.4551L99.6866 464.142C99.7602 464.145 99.8288 464.15 99.8882 464.154C100.019 464.164 100.109 464.17 100.19 464.17C102.346 464.17 104.434 464.225 106.537 464.146H106.538C107.005 464.128 107.481 464.036 108.045 463.927C108.584 463.824 109.207 463.706 109.847 463.7H109.848C114.956 463.66 119.873 463.766 124.945 463.7C127.838 463.65 130.655 463.33 133.634 463.156C136.519 462.988 139.514 462.75 142.478 462.725H142.485C143.633 462.725 144.776 462.829 145.869 462.926C146.976 463.024 148.037 463.115 149.087 463.105H149.095C151.985 463.105 154.875 462.859 157.817 462.647L157.818 462.647C160.424 462.463 163.022 462.21 165.63 461.94L166.674 461.825C169.126 461.542 171.672 461.173 174.159 460.997H174.16C176.577 460.829 179.003 460.88 181.372 460.924H181.374C181.159 460.104 181.027 459.264 180.981 458.417L180.98 458.398L180.98 458.379C180.953 455.673 181.084 452.968 181.37 450.277L181.372 450.264L181.374 450.25C181.499 449.343 181.764 448.39 181.932 447.611C182.11 446.784 182.214 446.028 182.122 445.266C181.708 442.063 181.601 438.829 181.802 435.606V435.599C182.13 430.947 182.014 426.314 182.126 421.564C182.135 421.151 182.129 420.727 182.123 420.283C182.117 419.845 182.11 419.387 182.12 418.931C182.138 418.022 182.221 417.06 182.531 416.144C183.03 414.671 183.127 413.161 183.137 411.559C183.146 409.996 183.066 408.271 183.267 406.591C183.568 404.075 183.431 401.526 183.405 398.854V398.845C183.405 397.214 183.293 395.571 183.125 393.935C183.054 393.263 182.922 392.592 182.784 391.87C182.649 391.161 182.509 390.405 182.453 389.634L182.452 389.63C182.383 388.629 182.373 387.631 182.37 386.657C182.366 385.675 182.37 384.722 182.331 383.771C182.215 380.939 181.974 377.887 181.88 375.004L181.859 374.139C181.828 372.433 181.864 370.722 181.876 369.117C179.624 369.111 177.486 369.089 175.368 369.12H175.358C172.373 369.132 169.396 368.806 166.484 368.15C164.546 367.741 162.579 367.89 160.345 367.799L160.344 367.799C156.552 367.642 152.754 367.498 148.949 367.365C148.307 367.343 147.66 367.342 146.995 367.342C146.335 367.342 145.658 367.342 144.98 367.319H144.975L144.969 367.319C142.535 367.205 140.294 366.99 137.924 366.919C137.117 366.895 136.301 366.921 135.462 366.954C134.631 366.986 133.768 367.027 132.908 367.03H132.905C132.266 367.03 131.629 366.985 131.034 366.946C130.427 366.907 129.858 366.873 129.298 366.885H129.295C127.331 366.92 125.482 367.071 123.457 367.144C122.705 367.172 121.952 367.153 121.203 367.086C120.397 367.02 119.574 366.903 118.82 366.813C118.047 366.721 117.311 366.653 116.589 366.665C115.117 366.689 113.647 366.804 112.139 366.904C110.642 367.003 109.118 367.088 107.595 367.044H107.585L107.574 367.043C104.923 366.903 102.287 366.564 99.687 366.031ZM421.692 364.839C420.666 364.898 419.637 365.026 418.581 365.167C417.527 365.307 416.438 365.462 415.345 365.562C413.197 365.757 410.921 365.929 408.694 365.989L408.694 365.99C407.247 366.03 405.803 366.03 404.371 366.027C402.935 366.024 401.513 366.018 400.092 366.045H400.089C396.374 366.105 392.659 366.204 388.936 366.294L388.924 366.295H388.913C388.631 366.294 388.351 366.319 388.075 366.37C386.447 366.672 384.54 367.167 382.54 366.765C381.695 366.612 380.833 366.563 379.976 366.618L379.964 366.619L379.952 366.62C378.998 366.654 378.045 366.725 377.069 366.793C376.1 366.862 375.111 366.927 374.116 366.945H374.115C373.03 366.963 371.949 366.934 370.888 366.904C369.82 366.873 368.774 366.84 367.729 366.845H367.725C365.87 366.845 364.056 366.973 362.138 367.035L362.124 367.035H360.675L360.649 367.034C358.795 366.926 356.833 366.878 354.923 366.665C352.1 366.354 349.266 365.914 346.493 365.548C346.493 365.574 346.494 365.602 346.495 365.633L346.502 365.747C346.82 369.828 347.211 373.953 347.403 378.08L347.439 378.905V378.906C347.498 380.443 347.452 381.967 347.389 383.462C347.326 384.968 347.247 386.434 347.235 387.907C347.215 390.275 347.228 392.644 347.239 395.02C347.25 397.393 347.26 399.772 347.235 402.149V402.155C347.16 406.56 347.024 410.974 346.733 415.382L346.733 415.382C346.522 418.902 346.067 422.452 345.731 425.915L345.729 425.937L345.726 425.958C345.593 426.858 345.516 427.765 345.496 428.675C345.621 432.818 345.7 436.932 345.993 441.024L346.037 441.578C346.275 444.345 346.732 447.095 347.189 449.878C347.398 451.156 347.657 452.429 347.923 453.718C348.187 455 348.459 456.301 348.687 457.611C348.884 458.717 349.047 459.826 349.208 460.921C349.364 461.988 349.518 463.041 349.701 464.086C349.712 464.106 349.726 464.126 349.743 464.142C349.762 464.16 349.784 464.172 349.807 464.183C351.172 464.354 352.546 464.434 353.921 464.424C354.854 464.395 355.79 464.313 356.749 464.221C357.704 464.13 358.689 464.027 359.676 463.966C362.792 463.767 365.948 463.53 369.107 463.465H369.109C373.689 463.38 378.336 463.465 382.883 463.43H382.89L383.644 463.424C385.403 463.396 387.161 463.279 388.962 463.191L388.986 463.19H389.011C390.237 463.198 391.462 463.107 392.673 462.918C396.993 461.972 401.344 461.905 405.626 461.955C408.547 461.955 411.472 462.101 414.355 462.201C416.215 462.261 418.087 462.326 419.963 462.452C421.297 462.537 422.626 462.679 423.837 462.803C423.925 461.114 423.992 459.597 424.107 458.093C424.169 457.289 424.28 456.484 424.374 455.725C424.469 454.953 424.549 454.214 424.565 453.48V453.479C424.598 452.117 424.584 450.756 424.569 449.377C424.554 448.003 424.537 446.609 424.565 445.203C424.6 443.033 424.778 440.8 424.866 438.686C424.971 436.031 425.071 433.381 425.141 430.727C425.222 427.478 425.449 424.351 425.276 421.213V421.211C425.191 419.598 424.948 418.021 424.751 416.335C424.558 414.675 424.415 412.951 424.568 411.176C424.873 407.59 424.782 404.099 424.951 400.395C425.166 395.675 425.477 390.92 425.716 386.221C425.81 384.285 426.01 382.52 425.811 380.78L425.811 380.779C425.408 377.227 425.015 373.469 426.234 369.8C426.483 369.05 426.537 368.307 426.511 367.517C426.498 367.119 426.465 366.717 426.428 366.294C426.394 365.911 426.357 365.505 426.333 365.095C426.328 365.086 426.323 365.078 426.316 365.07C426.313 365.067 426.31 365.065 426.307 365.062C424.776 364.882 423.234 364.806 421.692 364.839ZM200.191 260.543C199.533 260.377 198.852 260.314 198.173 260.356C197.3 260.47 196.434 260.652 195.512 260.833C194.595 261.012 193.634 261.186 192.649 261.252L192.65 261.253C190.629 261.392 188.158 261.643 186.056 260.443C185.878 260.521 185.7 260.606 185.474 260.703C185.14 260.846 184.714 261.009 184.239 261.024H184.235C181.754 261.095 179.264 261.115 176.773 261.024C175.361 260.979 173.952 260.889 172.558 260.798C171.158 260.707 169.774 260.614 168.391 260.56C166.505 260.486 164.608 260.515 162.695 260.56H162.693C161.082 260.594 159.511 260.717 157.852 260.794C158.071 261.785 158.191 262.796 158.209 263.811L158.248 264.625C158.335 266.524 158.389 268.429 158.455 270.325L158.576 273.55C158.703 276.783 158.836 280.033 158.87 283.275L158.871 283.721C158.862 284.758 158.79 285.787 158.711 286.792C158.62 287.951 158.521 289.07 158.49 290.19V290.192C158.453 291.364 158.473 292.541 158.488 293.746C158.504 294.944 158.515 296.166 158.459 297.39V297.391C158.373 299.216 158.202 301.044 158.054 302.834C157.905 304.635 157.777 306.41 157.77 308.178V308.179C157.745 312.975 158.004 317.779 158.244 322.631L158.267 322.983C158.334 323.804 158.485 324.634 158.632 325.534C158.795 326.536 158.951 327.612 158.91 328.708L158.909 328.707C158.814 331.986 158.467 335.253 157.871 338.479L157.87 338.482L157.869 338.486C156.963 343.167 156.897 347.716 158.096 352.277L158.105 352.312L158.111 352.346C158.221 352.96 158.281 353.581 158.292 354.204C158.937 354.443 159.504 354.653 160.06 354.879C160.381 355.006 160.7 355.205 160.871 355.301C161.092 355.425 161.187 355.454 161.239 355.459L161.241 355.46C162.724 355.616 164.202 355.692 165.736 355.806C167.252 355.919 168.795 356.069 170.32 356.372C173.303 356.958 176.272 356.881 179.34 356.687L179.341 356.687C184.333 356.377 189.3 355.885 194.325 355.488L194.966 355.439C196.461 355.333 197.956 355.267 199.439 355.206C201.821 355.108 204.342 354.894 206.817 354.985C208.447 355.046 210.071 355.185 211.673 355.327C213.283 355.47 214.868 355.617 216.457 355.701C217.572 355.759 218.695 355.74 219.857 355.723C221.009 355.706 222.196 355.692 223.384 355.767C225.247 355.883 227.103 356.066 228.939 356.242C230.781 356.419 232.605 356.59 234.431 356.686C237.467 356.844 240.486 356.735 243.605 356.74C244.098 356.74 244.744 356.791 245.153 356.803C245.631 356.817 246.026 356.796 246.367 356.703C250.63 355.5 254.948 355.627 259.143 355.806C261.265 355.897 263.397 356.075 265.511 356.25C267.366 356.403 269.208 356.554 271.043 356.646L271.83 356.681L271.837 356.681L271.844 356.682C275.176 356.87 278.518 356.647 281.794 356.016C285.727 355.199 289.791 354.476 293.955 354.673C294.376 354.655 294.795 354.613 295.211 354.547C295.171 354.222 295.135 353.921 295.101 353.619C294.854 351.52 294.544 349.354 294.377 347.197C294.192 344.791 294.055 342.362 294.055 339.93C294.055 338.541 294.112 337.148 294.174 335.776C294.236 334.398 294.303 333.045 294.325 331.706C294.379 328.352 294.296 324.774 294.38 321.374C294.409 320.229 294.51 319.09 294.607 317.986C294.705 316.872 294.798 315.791 294.82 314.712C294.895 310.878 294.82 307.101 294.85 303.223C294.851 302.772 294.933 302.324 294.986 301.988C295.046 301.617 295.078 301.347 295.058 301.102L295.058 301.098C294.846 298.377 294.406 295.42 294.295 292.565L294.265 291.752C294.123 287.685 294.141 283.6 294.09 279.566V279.555C294.09 278.969 294.142 278.218 294.154 277.709C294.167 277.128 294.143 276.623 294.027 276.172C293.595 274.493 293.586 272.842 293.667 271.27C293.749 269.653 293.915 268.206 293.885 266.702V266.696C293.864 264.901 294.029 263.049 294.145 261.31H288.745C288.419 261.31 288.087 261.353 287.677 261.401C287.29 261.447 286.833 261.498 286.365 261.474C285.393 261.426 284.421 261.335 283.48 261.254C282.531 261.172 281.606 261.099 280.687 261.08C279.072 261.046 277.517 261.22 275.79 261.299H275.788C275.424 261.315 275.056 261.315 274.721 261.318C274.38 261.321 274.063 261.327 273.755 261.352C270.596 261.647 267.348 262.062 264.123 262.272L264.124 262.273C261.12 262.475 258.107 262.515 255.116 262.535H255.11C254.148 262.535 253.191 262.486 252.257 262.435C251.315 262.383 250.4 262.33 249.486 262.315H249.483C247.225 262.272 244.969 262.272 242.717 262.315H242.713C239.772 262.357 236.842 261.946 234.025 261.097C232.609 260.702 231.138 260.535 229.668 260.599L229.662 260.6H229.656C224.064 260.764 218.484 261.058 212.879 261.304L212.879 261.304C212.241 261.333 211.686 261.445 210.913 261.525C210.218 261.598 209.416 261.63 208.646 261.385V261.386C207.369 260.99 206.051 260.912 204.633 260.875C203.248 260.839 201.731 260.844 200.238 260.554L200.215 260.549L200.191 260.543ZM425.902 257.918C422.802 258.135 419.681 258.369 416.568 258.559L416.568 258.558C414.648 258.689 412.713 258.832 410.771 258.93L409.938 258.969C406.311 259.124 402.674 259.265 399.04 259.345L399.04 259.345C398.347 259.361 397.664 259.322 397.007 259.275C396.338 259.227 395.716 259.171 395.083 259.144H395.082C392.051 259.01 388.966 258.898 385.92 258.759C382.575 258.61 379.479 258.267 376.275 258.75H376.274C372.388 259.33 368.419 259.516 364.585 259.842H364.584C363.762 259.911 362.938 259.95 362.141 259.994C361.337 260.037 360.554 260.085 359.78 260.169L359.779 260.17C355.838 260.594 351.762 261.212 347.701 261.518C344.843 261.731 341.921 261.569 339.127 261.545C338.687 261.544 338.234 261.471 337.906 261.428C337.539 261.381 337.275 261.362 337.047 261.395L337.047 261.396C332.555 262.058 328.168 261.361 323.933 260.715L323.907 260.711L323.88 260.706C322.934 260.501 321.972 260.379 321.005 260.34C317.706 260.436 314.49 260.663 311.144 260.794C309.84 260.845 308.503 260.813 307.158 260.8C306.92 264.785 306.656 268.856 306.469 272.93V272.932C306.421 273.946 306.44 274.967 306.458 276.025C306.475 277.073 306.491 278.155 306.429 279.24V279.241C306.253 282.224 306.006 285.22 305.633 288.194C305.246 291.31 304.675 294.428 304.2 297.48L304.195 297.511L304.188 297.542C303.982 298.433 303.85 299.34 303.795 300.252C303.796 301.115 303.853 301.985 303.923 302.879C303.992 303.772 304.076 304.701 304.119 305.625L304.142 306.194C304.158 306.763 304.159 307.328 304.164 307.872C304.17 308.607 304.183 309.314 304.242 310.01L304.351 311.191C304.621 313.966 304.994 316.862 305.173 319.665C305.279 321.316 305.038 322.983 304.901 324.482C304.761 326.023 304.717 327.462 305.112 328.894C305.353 329.753 305.412 330.646 305.428 331.485C305.443 332.262 305.423 332.928 305.446 333.617L305.459 333.914C305.683 338.25 305.959 342.614 306.12 346.973C306.21 349.428 306.139 351.923 306.123 354.413C308.343 354.402 310.464 354.358 312.554 354.416H312.561C316.073 354.541 319.586 354.757 323.049 354.952C325.44 355.087 327.596 355.39 329.852 355.37C331.407 355.355 332.968 355.269 334.55 355.173C336.125 355.078 337.727 354.973 339.334 354.925C342.121 354.845 344.911 354.885 347.673 354.925C348.414 354.926 349.151 354.99 349.836 355.044C350.539 355.1 351.194 355.146 351.836 355.125L352.164 355.112C352.93 355.076 353.702 355.005 354.49 354.927C355.383 354.838 356.306 354.738 357.227 354.677H357.229C358.26 354.61 359.391 354.674 360.33 354.674C362.423 354.649 364.503 354.635 366.586 354.595C368.892 354.545 371.166 354.516 373.443 354.392H373.444C375.078 354.305 376.713 354.18 378.362 354.059C380.007 353.937 381.664 353.819 383.325 353.746L383.784 353.728C384.854 353.691 385.922 353.697 386.969 353.702C388.174 353.707 389.352 353.712 390.523 353.656C394.217 353.48 397.778 353.16 401.514 352.952L401.687 352.946C402.087 352.945 402.467 353.015 402.753 353.065C403.119 353.129 403.363 353.166 403.583 353.152L403.586 353.151C406.836 352.95 410.221 352.611 413.527 352.466L413.539 352.465L413.551 352.465C415.287 352.436 417.024 352.514 418.751 352.697C421.116 352.879 423.481 353.104 425.73 353.309C426.056 349.836 426.341 346.139 426.823 342.49L426.919 341.778C427.418 338.217 428.109 334.673 428.729 331.173L428.729 331.168L428.73 331.165C428.968 329.891 428.895 328.579 428.518 327.34L428.518 327.338C427.545 324.117 426.764 320.841 426.178 317.527L426.178 317.524C425.725 314.915 425.748 312.118 425.548 309.631C425.35 307.22 424.961 304.606 424.9 302.05C424.84 299.484 425.084 297.045 425.186 294.667C425.316 291.627 425.461 288.596 425.556 285.562V285.562C425.588 284.574 425.596 283.584 425.605 282.58C425.613 281.579 425.62 280.563 425.65 279.539V279.538C425.742 276.59 425.965 273.79 425.96 270.917V270.915C425.96 269.62 425.884 268.321 425.804 266.993C425.725 265.673 425.64 264.324 425.63 262.972C425.617 261.293 425.778 259.574 425.902 257.918Z" fill="#141413"/>
<path d="M160.59 23.6284C176.795 23.7638 188.695 28.1039 191.344 29.2354L191.603 29.3433C192.21 29.589 192.836 29.7991 193.505 30.0396C194.247 30.306 195.025 30.6042 195.761 31.0049C199.788 33.1189 204.084 35.1153 207.971 37.6943L208.346 37.9458L208.351 37.9487C211.926 40.4045 215.751 42.2525 219.674 44.1362L220.147 44.356C221.256 44.8556 222.42 45.2698 223.623 45.6943C224.983 46.1742 226.396 46.6683 227.75 47.3022L228.315 47.5708C231.136 48.9328 233.866 50.5774 236.546 52.0024C237.469 52.4931 238.409 52.9348 239.383 53.4111C240.345 53.8819 241.325 54.3794 242.265 54.9604C246.283 57.4407 250.509 59.8764 254.307 62.8237C258.623 66.1732 263.358 69.407 267.093 73.7334C268.3 75.0453 269.42 76.4348 270.444 77.8931L270.88 78.5259L270.888 78.5381L270.897 78.5508C271.269 79.1452 271.414 79.8231 271.497 80.4136C271.538 80.7132 271.567 81.0178 271.594 81.2949C271.615 81.5086 271.634 81.7076 271.659 81.897L271.685 82.0835L271.686 82.0884C272.149 85.2594 271.824 88.496 270.738 91.5112L270.732 91.5278L270.726 91.5439C270.292 92.6143 269.622 93.573 268.767 94.3496C267.27 95.769 265.643 97.4857 263.703 98.6074L263.692 98.6143L263.681 98.6201C261.341 99.8827 258.885 100.917 256.347 101.708C254.196 102.445 251.988 102.107 249.999 101.601C246.469 100.767 243.02 99.6217 239.692 98.1777L239.679 98.1719C236.126 96.5625 233.047 94.2796 230.057 92.0801C227.081 89.8917 224.065 87.4191 221.139 85.2139C220.636 84.8686 220.07 84.6284 219.472 84.5078L219.463 84.5059L219.455 84.5039C217.968 84.1727 216.74 83.4562 215.643 82.6978C214.492 81.9024 213.598 81.1551 212.517 80.5063L212.266 80.3516C212.054 80.216 211.937 80.1327 211.762 80.0557L211.739 80.0449C210.559 79.4826 210.114 79.5061 209.913 79.6001C209.816 79.6455 209.675 79.752 209.501 80.0391C209.324 80.3321 209.144 80.7596 208.949 81.3701C208.455 82.9721 208.691 84.5807 209.18 86.2695L209.281 86.6089L209.284 86.6177C210.046 89.1975 210.964 91.7282 212.035 94.1958C212.754 95.7344 213.648 97.1845 214.7 98.5166L214.913 98.7822L214.917 98.7861L214.919 98.79C216.44 100.7 218.084 102.509 219.841 104.204C220.436 104.776 221.125 105.269 221.875 105.799C222.516 106.252 223.207 106.735 223.848 107.29L224.119 107.532L224.12 107.533C225.325 108.649 226.475 109.824 227.609 110.973C228.745 112.124 229.868 113.252 231.044 114.31C232.677 115.701 234.403 116.979 236.211 118.132L236.229 118.144C239.015 120.017 241.8 121.729 244.641 123.599C245.817 124.373 246.981 125.163 248.142 125.949C249.298 126.732 250.451 127.511 251.62 128.275C251.885 128.435 252.171 128.556 252.47 128.634L252.6 128.665L252.616 128.668L252.632 128.672C257.087 129.813 261.403 131.467 265.131 134.423L265.694 134.869C268.414 137.039 271.139 139.446 272.839 142.724L273.012 143.066L273.012 143.067C274.588 146.307 275.167 149.878 273.39 153.491L273.388 153.496C272.917 154.438 272.504 155.408 272.149 156.399C271.373 158.627 269.702 160.203 268.298 161.539L268.297 161.539C266.281 163.508 263.771 164.894 261.032 165.551C262.271 167.406 263.072 169.526 263.365 171.75C264.216 177.067 263.495 181.976 258.971 185.877L258.97 185.878C257.341 187.279 255.563 189.055 252.994 189.544C252.019 189.73 250.999 189.823 250.08 189.905C251.758 194.092 253.295 198.61 250.466 203.479L250.467 203.479C247.954 207.809 244.497 210.935 239.251 211.686C239.43 212.232 239.588 212.715 239.775 213.188L239.908 213.508L239.909 213.509C241.026 216.106 240.723 218.664 239.881 221.074C239.291 222.762 238.61 224.43 237.848 226.061L237.835 226.089L237.819 226.117C237.448 226.78 236.963 227.372 236.386 227.866L236 228.234C235.87 228.36 235.739 228.489 235.606 228.62C235.342 228.88 235.068 229.151 234.786 229.414C234.227 229.933 233.607 230.451 232.896 230.853C231.511 231.674 229.95 232.152 228.342 232.249L228.325 232.25L228.308 232.25C225.232 232.311 222.144 232.041 219.133 231.812C217.21 231.724 215.298 231.465 213.421 231.038L213.41 231.036L213.398 231.033C211.051 230.432 208.758 229.635 206.544 228.649L206.543 228.649C201.915 226.579 197.482 224.098 193.296 221.237L193.295 221.237C191.386 219.928 189.705 218.255 188.082 216.783L188.081 216.782C186.176 215.046 184.259 213.159 182.396 211.432C180.609 209.777 178.909 208.121 177.073 206.629C175.86 205.643 174.604 204.702 173.332 203.756C172.064 202.813 170.777 201.861 169.522 200.866L169.52 200.865C168.047 199.693 166.674 198.324 165.343 197.119C161.782 193.898 158.265 190.671 154.689 187.494C151.919 185.032 149.272 182.541 146.376 180.375L146.371 180.372L146.366 180.368C143.209 177.937 139.797 175.858 136.189 174.167C134.291 173.31 132.554 171.958 130.961 170.918C129.667 170.075 128.252 169.476 126.755 168.928C125.292 168.391 123.676 167.878 122.163 167.248L122.162 167.247C120.054 166.364 117.973 165.407 115.921 164.407L115.917 164.404L115.911 164.401C114.679 163.78 113.484 163.086 112.333 162.326C111.454 161.763 110.587 161.03 109.844 160.478L109.799 160.444L109.758 160.405C109.689 160.338 109.609 160.282 109.522 160.237C108.223 159.807 107.373 159.061 106.97 158.017C106.584 157.016 106.668 155.883 106.882 154.809L106.902 154.71L106.944 154.618C107.703 152.947 108.867 151.983 110.228 151.557C111.549 151.144 112.968 151.263 114.241 151.565C115.522 151.869 116.735 152.377 117.68 152.825C118.155 153.05 118.57 153.263 118.894 153.43C119.244 153.609 119.433 153.705 119.52 153.739C121.613 154.545 123.718 155.375 125.788 156.289C128.052 157.286 130.36 158.301 132.586 159.505C136.219 161.437 139.781 163.489 143.343 165.514C144.593 166.217 145.843 166.925 147.091 167.631C148.324 168.329 149.556 169.026 150.788 169.718C151.204 169.88 151.609 170.071 151.998 170.292L152.172 170.393L152.23 170.427L152.281 170.469C154.858 172.589 157.655 174.679 160.115 177.073C161.975 178.885 163.764 180.773 165.533 182.651C167.306 184.534 169.057 186.405 170.863 188.206L170.865 188.208C173.795 191.147 176.837 193.96 179.917 196.791L179.918 196.792C181.458 198.21 183.031 199.596 184.648 200.911L185.344 201.469L185.344 201.47C187.576 203.244 189.851 204.948 192.203 206.575C193.651 207.561 195.188 208.37 196.777 209.254L197.462 209.639L197.463 209.64C201.302 211.828 205.124 214.014 208.975 216.176L210.627 217.101L210.65 217.115C211.987 217.916 213.423 218.541 214.921 218.973C217.413 219.573 219.934 220.037 222.48 220.496L225.038 220.959L225.041 220.96C226.921 221.311 228.27 220.332 229.695 218.81C229.808 218.635 229.856 218.426 229.825 218.219L229.824 218.215L229.823 218.211C229.383 215.071 227.896 212.316 226.456 209.295C222.799 207.269 219.359 205.132 215.659 203.484C211.76 201.751 207.968 199.854 204.489 197.229L204.067 196.918C203.075 196.204 202.024 195.551 200.94 194.904C199.714 194.172 198.424 193.434 197.19 192.648L197.189 192.647C196.244 192.044 195.367 191.308 194.559 190.682L194.558 190.681C192.91 189.398 191.164 188.113 189.525 186.727L189.199 186.448C186.919 184.483 184.624 182.477 182.487 180.309C180.681 178.504 179.039 176.541 177.582 174.444L177.556 174.407L177.534 174.368C177.211 173.784 177.022 173.136 176.98 172.471C176.937 171.806 177.041 171.139 177.286 170.519L177.299 170.487L177.314 170.457C178.347 168.333 181.101 167.425 183.24 168.266C183.926 168.535 184.537 168.928 185.088 169.33C185.365 169.531 185.634 169.741 185.892 169.943C186.153 170.148 186.4 170.343 186.649 170.53C189.714 172.824 192.777 175.127 195.812 177.47L196.812 178.238C199.14 180.033 201.437 181.849 203.701 183.687C206.026 185.548 208.076 187.436 210.394 189.122C211.91 190.223 213.479 191.254 215.067 192.301C216.649 193.344 218.25 194.402 219.798 195.54C222.13 197.253 224.455 198.591 227.184 199.111H227.185L227.768 199.226C229.13 199.501 230.488 199.822 231.814 200.116C235.163 200.812 238.184 200.851 240.831 198.781L240.837 198.776L240.843 198.772C241.114 198.568 241.297 198.269 241.361 197.937C241.396 196.4 241.324 194.863 241.146 193.336L241.145 193.329L241.145 193.321C241.091 192.782 240.875 192.272 240.526 191.858C239.258 190.559 237.865 189.388 236.442 188.137L236.411 188.109L236.382 188.079C235.972 187.642 235.489 187.28 234.955 187.007C229.997 185.195 225.288 182.763 220.939 179.771C219.865 179.035 218.748 178.344 217.611 177.644C216.48 176.946 215.326 176.237 214.205 175.48L214.204 175.479C211.605 173.72 209.069 171.882 206.549 170.042L206.548 170.041C205.846 169.527 205.172 168.977 204.522 168.455C203.866 167.927 203.228 167.423 202.567 166.965C201.695 166.363 200.787 165.809 199.854 165.232C199.044 164.731 198.219 164.215 197.418 163.652L197.072 163.406C196.291 162.833 195.552 162.203 194.838 161.581C194.116 160.951 193.429 160.336 192.716 159.752L192.714 159.751C191.943 159.117 191.345 158.382 190.821 157.656C190.56 157.293 190.311 156.923 190.072 156.569C189.829 156.211 189.595 155.867 189.35 155.533L189.342 155.522L189.335 155.511C188.404 154.16 187.745 152.64 187.394 151.037C187.269 150.567 187.298 150.069 187.476 149.615L187.482 149.597L187.491 149.58C187.712 149.083 188.032 148.636 188.432 148.267C188.832 147.898 189.303 147.615 189.816 147.435C190.33 147.255 190.875 147.182 191.418 147.22C191.953 147.258 192.476 147.404 192.954 147.649C195.183 148.739 197.456 149.901 199.476 151.642C201.345 153.252 203.329 154.741 205.347 156.222L207.372 157.705L207.373 157.705C210.174 159.762 213.015 161.769 215.897 163.727C217.021 164.488 218.175 165.211 219.344 165.941C220.509 166.668 221.69 167.403 222.846 168.177C223.423 168.563 223.933 169.033 224.382 169.44C224.85 169.864 225.26 170.228 225.705 170.509L229.186 172.686C232.669 174.855 236.16 176.999 239.684 179.071L239.688 179.073C241.397 180.09 242.931 180.886 244.656 180.505L244.667 180.503L244.678 180.501C245.597 180.322 246.499 180.065 247.375 179.733C249.198 179.016 250.999 178.277 252.73 177.429L252.75 177.419L252.77 177.411C253.093 177.272 253.367 177.039 253.556 176.742C253.744 176.445 253.838 176.097 253.826 175.746L253.825 175.727V175.709C253.832 174.711 253.661 173.719 253.321 172.781C252.576 171.332 251.737 169.933 250.811 168.593L250.795 168.571L250.781 168.547C250.222 167.62 249.467 166.825 248.571 166.218C247.674 165.61 246.656 165.205 245.587 165.028L245.576 165.026L245.564 165.024C242.27 164.387 239.575 162.458 237.115 160.667L237.111 160.665C236.323 160.084 235.586 159.421 234.888 158.806C234.177 158.179 233.498 157.595 232.774 157.104L232.773 157.104C230.588 155.62 228.48 154.14 226.212 153.087L225.757 152.883C222.636 151.53 219.505 150.065 216.733 147.939C213.513 145.469 210.401 142.855 207.37 140.17C205.417 138.44 203.591 136.572 201.907 134.58L201.905 134.577C201.47 134.058 201.026 133.429 200.687 132.755C200.351 132.091 200.088 131.326 200.085 130.554V130.55C200.085 128.982 201.359 127.735 202.614 127.087C203.868 126.44 205.622 126.123 206.898 127.033C207.911 127.756 208.824 128.589 209.689 129.423C210.565 130.266 211.369 131.084 212.238 131.863C212.56 132.122 212.918 132.333 213.299 132.491L213.32 132.5L213.34 132.509C213.643 132.653 213.953 132.755 214.358 132.907C214.732 133.046 215.172 133.225 215.571 133.5L215.579 133.504L215.585 133.509C217.685 135.016 219.723 136.557 221.762 138.101L222.793 138.875C225.208 140.678 227.677 142.484 230.03 144.413L230.031 144.414C233.382 147.167 236.738 149.629 240.751 150.98C241.326 151.171 241.884 151.391 242.418 151.604C242.824 151.766 243.215 151.923 243.606 152.068L243.998 152.209L244.002 152.21C245.459 152.726 246.877 153.462 248.177 154.049C249.516 154.653 250.813 155.141 252.219 155.3C255.269 155.641 257.66 155.767 259.467 153.509L259.468 153.507C259.758 153.147 260.087 152.814 260.377 152.519C260.68 152.212 260.945 151.941 261.172 151.657C261.607 151.114 261.843 150.598 261.779 149.917L261.777 149.894C261.715 148.974 261.499 148.072 261.137 147.224C260.459 145.785 259.857 144.454 258.927 143.584C256.861 141.755 254.686 140.052 252.414 138.485L252.404 138.479L252.394 138.472C250.654 137.201 248.857 136.002 247.009 134.908C243.895 133.074 240.722 131.356 237.527 129.563L237.526 129.562C236.389 128.923 235.233 128.176 234.159 127.535C233.056 126.876 231.974 126.287 230.848 125.864C228.067 124.862 225.486 123.374 223.226 121.469L223.223 121.466L223.22 121.463C222.279 120.654 221.407 119.779 220.565 118.914C219.716 118.041 218.906 117.186 218.052 116.374L218.051 116.374C217.371 115.725 216.646 115.121 215.894 114.478C215.154 113.846 214.396 113.183 213.699 112.451L212.98 111.703C211.314 109.948 209.73 108.117 208.232 106.216L208.23 106.213L208.228 106.21C205.233 102.342 202.183 98.4262 199.442 94.3208C197.821 91.8964 196.405 89.0252 196.591 85.7158C196.868 80.7446 198.135 76.0068 201.58 72.0459L201.581 72.0449C203.217 70.1713 205.277 68.5189 208.215 68.7109C210.267 68.8188 212.311 69.0408 214.338 69.3745L215.206 69.5244L215.211 69.5254L215.216 69.5264C219.094 70.2766 222.939 71.6896 225.46 75.3315L225.757 75.7485C227.176 77.6744 228.965 79.298 231.018 80.5244L231.462 80.7812L231.474 80.7881C232.511 81.3892 233.511 82.1429 234.429 82.7695C235.319 83.3766 236.185 83.9061 237.13 84.2593L237.32 84.3276L237.327 84.3301L237.335 84.3325C238.302 84.6848 239.215 85.1727 240.045 85.7798C242.686 87.679 245.769 88.8723 249.001 89.2461H249.002C252.072 89.6059 254.648 89.483 256.528 86.9575L256.529 86.9565C256.981 86.3506 257.379 85.1214 257.532 83.7441C257.686 82.3584 257.559 81.1124 257.219 80.46C255.48 77.127 252.582 74.8746 249.409 72.7891L248.681 72.3228C245.028 70.0094 241.195 67.9849 237.359 65.8169C233.346 63.5481 229.266 61.4443 225.341 59.0962C223.078 57.7562 220.867 56.3521 218.67 54.9556C216.469 53.5559 214.284 52.1637 212.057 50.8364C209.912 49.5563 207.867 48.4046 205.452 47.8584L205.44 47.8555C202.627 47.1786 199.892 46.2072 197.282 44.9565L196.213 44.4736C194.986 43.9192 193.332 43.1607 191.682 42.2974C189.51 41.1612 187.216 39.7789 185.912 38.3628C185.484 37.8986 184.708 37.4956 183.514 37.1641C182.339 36.8378 180.876 36.6108 179.192 36.416C175.874 36.0322 171.694 35.7773 167.663 35.0669C163.105 34.2603 160.851 34.5544 159.134 34.9634C157.389 35.3792 155.872 36.0279 153.14 35.7759C151.835 35.6555 150.867 35.501 150.063 35.3701C149.251 35.2379 148.649 35.1378 148.017 35.1055C146.79 35.0428 145.378 35.2333 142.264 36.1772C140.739 36.6395 138.887 37.3835 136.886 38.1978C134.903 39.005 132.784 39.8762 130.781 40.562C128.79 41.2438 126.837 41.7695 125.189 41.8481C123.56 41.9259 121.959 41.5706 121.078 40.1646L121.078 40.1641C119.767 38.0676 119.415 36.4153 119.795 35.0547C120.171 33.7147 121.196 32.9108 121.978 32.3701C122.822 31.7859 123.851 31.2868 125.409 30.6689C126.966 30.0513 129.103 29.2951 132.184 28.21C135.74 26.9557 143.209 23.625 159.815 23.625L160.59 23.6284Z" fill="#141413"/>
</svg>
